<svg viewBox="0 0 34 29" fill="none" xmlns="http://www.w3.org/2000/svg">
<path d="M31.1 5.92418C29.6121 4.0953 27.5908 2.65054 25.0364 1.5903C22.4821 0.530056 19.6918 0 16.6661 0C13.6404 0 10.8503 0.530056 8.29581 1.5903C5.74137 2.65054 3.72017 4.09504 2.23209 5.92418C0.743942 7.75318 0 9.74643 0 11.9041C0 13.7641 0.560937 15.5068 1.68327 17.1312C2.8056 18.7556 4.33993 20.1199 6.28699 21.2234C6.15044 21.7193 5.98926 22.1904 5.80319 22.6372C5.61719 23.0835 5.44982 23.4494 5.30102 23.7347C5.15209 24.0197 4.95078 24.3361 4.69637 24.683C4.44235 25.0304 4.25016 25.2754 4.11992 25.4181C3.98982 25.5608 3.77594 25.796 3.47814 26.1248C3.18073 26.4532 2.98841 26.6675 2.90169 26.7667C2.88912 26.7731 2.83961 26.8285 2.75283 26.9344C2.66611 27.0397 2.62259 27.092 2.62259 27.092L2.51099 27.2595C2.4489 27.352 2.42102 27.4111 2.42715 27.4356C2.4334 27.4606 2.42102 27.5225 2.39001 27.6215C2.35893 27.7209 2.36213 27.7954 2.39926 27.8449V27.8636C2.4489 28.0743 2.548 28.2449 2.6968 28.3751C2.8456 28.5049 3.0133 28.5699 3.1991 28.5699H3.2922C4.09843 28.4705 4.80517 28.3346 5.41269 28.1609C8.66169 27.3302 11.5139 25.8297 13.969 23.6594C14.899 23.7587 15.798 23.8082 16.666 23.8082C19.6916 23.8082 22.4819 23.2782 25.0363 22.2176C27.5907 21.1572 29.6119 19.713 31.0999 17.8841C32.5881 16.0552 33.3321 14.0617 33.3321 11.9041C33.3322 9.74669 32.5882 7.75318 31.1 5.92418ZM29.0074 16.6474C27.7112 18.1104 25.9628 19.2731 23.7618 20.1348C21.5608 20.9963 19.1953 21.4275 16.6656 21.4275C15.9093 21.4275 15.1033 21.378 14.2477 21.2785L13.1875 21.1673L12.3877 21.8743C10.8626 23.2136 9.15741 24.2737 7.27257 25.0549C7.84289 24.0507 8.27692 22.9842 8.57465 21.856L9.07682 20.0701L7.45864 19.1404C5.84658 18.2223 4.59741 17.1343 3.71059 15.8755C2.82391 14.6171 2.38076 13.2931 2.38076 11.9044C2.38076 10.2055 3.02867 8.62456 4.32443 7.1613C5.62058 5.69817 7.3688 4.53558 9.56994 3.67378C11.7711 2.81192 14.1362 2.38063 16.666 2.38063C19.1957 2.38063 21.5607 2.81172 23.7617 3.67352C25.9627 4.53538 27.7111 5.69791 29.0074 7.16104C30.3032 8.6243 30.951 10.2053 30.951 11.9041C30.951 13.6028 30.3032 15.1841 29.0074 16.6474Z" fill="black"/>
</svg>
