<svg  viewBox="0 0 32 7" fill="none" xmlns="http://www.w3.org/2000/svg">
<path d="M3.5 0C2.6 0 1.65 0.399999 1 1.05C0.35 1.7 0 2.6 0 3.5C0 4.4 0.4 5.3 1 6C1.65 6.65 2.55 7 3.5 7C4.4 7 5.3 6.6 5.95 6C6.6 5.35 7 4.45 7 3.5C7 2.6 6.6 1.7 5.95 1.05C5.3 0.399999 4.4 0 3.5 0ZM18.45 1.05C19.1 1.7 19.5 2.6 19.5 3.5C19.5 4.4 19.1 5.3 18.45 6C17.8 6.65 16.9 7 16 7C15.1 7 14.15 6.6 13.5 6C12.85 5.35 12.5 4.45 12.5 3.5C12.5 2.6 12.9 1.7 13.5 1.05C14.15 0.399999 15.05 0 16 0C16.9 0 17.8 0.399999 18.45 1.05ZM30.95 1.05C31.6 1.7 32 2.6 32 3.5C32 4.4 31.6 5.3 30.95 6C30.3 6.65 29.4 7 28.5 7C27.6 7 26.65 6.6 26 6C25.35 5.35 25 4.45 25 3.5C25 2.6 25.4 1.7 26 1.05C26.65 0.399999 27.55 0 28.5 0C29.4 0 30.3 0.399999 30.95 1.05Z" fill="black"/>
</svg>
