<svg viewBox="0 0 30 30" fill="none" xmlns="http://www.w3.org/2000/svg">
<path d="M29.53 0.469989C29.4317 0.372164 29.3081 0.303544 29.173 0.271769C29.038 0.239989 28.8967 0.246299 28.765 0.289989L0.765021 9.62C0.625681 9.66875 0.503836 9.7576 0.414756 9.8753C0.325671 9.993 0.273311 10.1344 0.264236 10.2817C0.255161 10.4291 0.289771 10.5758 0.363736 10.7036C0.437696 10.8314 0.547721 10.9345 0.680021 11L13.105 16.895L19 29.32C19.0658 29.4534 19.1696 29.5645 19.2983 29.6392C19.4269 29.7139 19.5748 29.7488 19.7233 29.7397C19.8718 29.7306 20.0143 29.6779 20.1329 29.5881C20.2516 29.4983 20.341 29.3755 20.39 29.235L29.72 1.23499C29.7625 1.1024 29.7672 0.960624 29.7336 0.825514C29.7001 0.690409 29.6296 0.567304 29.53 0.469989ZM26.225 2.71499L13.5 15.43L3.00002 10.455L26.225 2.71499ZM19.545 27L14.545 16.5L27.285 3.77499L19.545 27Z" fill="black"/>
</svg>
