<svg  viewBox="0 0 31 31" fill="none" xmlns="http://www.w3.org/2000/svg">
<path d="M28.9217 7.7196C27.5356 5.34497 25.6555 3.46482 23.2808 2.07879C20.9055 0.692836 18.3126 0 15.5005 0C12.6884 0 10.0948 0.692836 7.7201 2.07879C5.34525 3.46461 3.4651 5.34476 2.079 7.7196C0.692837 10.0946 0 12.6881 0 15.5001C0 18.3121 0.693049 20.9053 2.07879 23.2804C3.46482 25.655 5.34497 27.5352 7.71982 28.9213C10.0948 30.3071 12.6881 30.9999 15.5002 30.9999C18.3123 30.9999 20.9059 30.307 23.2808 28.9213C25.6555 27.5353 27.5355 25.655 28.9215 23.2804C30.3072 20.9053 31 18.312 31 15.5001C31.0001 12.6879 30.3072 10.0942 28.9217 7.7196ZM27.3878 20.5153C26.7015 22.1098 25.7834 23.4824 24.6331 24.6326C23.4829 25.7827 22.1102 26.701 20.5157 27.3871C18.9213 28.0736 17.2497 28.4166 15.5005 28.4166C13.7513 28.4166 12.0797 28.0731 10.4852 27.3871C8.8908 26.701 7.51821 25.7827 6.36779 24.6326C5.21773 23.4821 4.29946 22.1099 3.61299 20.5153C2.92679 18.9211 2.58359 17.249 2.58359 15.5001C2.58359 13.7509 2.92672 12.0793 3.61299 10.4847C4.29918 8.89038 5.21745 7.51799 6.36779 6.36737C7.51821 5.2173 8.8908 4.29897 10.4852 3.61256C12.0795 2.92658 13.7514 2.58345 15.5005 2.58345C17.2494 2.58345 18.9216 2.92637 20.5157 3.61256C22.1102 4.29875 23.4826 5.21709 24.6331 6.36737C25.7833 7.51778 26.7015 8.89017 27.3878 10.4847C28.0741 12.0791 28.4173 13.7507 28.4173 15.5001C28.4176 17.2492 28.0741 18.9213 27.3878 20.5153Z" fill="black"/>
<path d="M22.0596 17.4981C21.7234 17.3898 21.3939 17.4178 21.0707 17.579C20.7475 17.7401 20.5322 17.996 20.4253 18.3459C20.0892 19.4224 19.4666 20.2937 18.5582 20.9595C17.6503 21.6255 16.6308 21.9586 15.5005 21.9586C14.3704 21.9586 13.3514 21.6253 12.443 20.9595C11.5348 20.2935 10.9125 19.4224 10.5761 18.3459C10.4686 17.996 10.2565 17.7401 9.94048 17.579C9.62429 17.4179 9.29812 17.3898 8.9617 17.4981C8.61186 17.6055 8.35631 17.8175 8.19471 18.1334C8.03326 18.4493 8.00625 18.7764 8.11406 19.1122C8.61165 20.7407 9.54009 22.0524 10.899 23.0481C12.2581 24.0439 13.792 24.5412 15.5007 24.5412C17.2092 24.5412 18.7435 24.0439 20.1025 23.0481C21.4606 22.0519 22.3891 20.7407 22.8869 19.1122C22.9953 18.7764 22.9682 18.4493 22.8066 18.1334C22.6445 17.8175 22.3954 17.6061 22.0596 17.4981Z" fill="black"/>
<path d="M10.3336 12.9169C11.0465 12.9169 11.6554 12.6641 12.16 12.1599C12.6647 11.6555 12.917 11.0466 12.917 10.3335C12.917 9.62026 12.6647 9.01161 12.16 8.50702C11.6554 8.00244 11.0465 7.75 10.3336 7.75C9.62047 7.75 9.01154 8.00244 8.50695 8.50702C8.00258 9.01168 7.75007 9.62033 7.75007 10.3335C7.75007 11.0466 8.0023 11.6555 8.50695 12.1599C9.01175 12.6643 9.6204 12.9169 10.3336 12.9169Z" fill="black"/>
<path d="M20.667 7.74988C19.9538 7.74988 19.3446 8.00231 18.84 8.5069C18.3358 9.01156 18.083 9.6202 18.083 10.3333C18.083 11.0465 18.3358 11.6554 18.84 12.1598C19.3446 12.6643 19.9538 12.9168 20.667 12.9168C21.3796 12.9168 21.9887 12.664 22.4934 12.1598C22.9981 11.6554 23.2504 11.0465 23.2504 10.3333C23.2504 9.62013 22.9981 9.01149 22.4934 8.5069C21.9887 8.00231 21.3796 7.74988 20.667 7.74988Z" fill="black"/>
</svg>
